<?xml version="1.0" encoding="UTF-8"?>
<svg xmlns="http://www.w3.org/2000/svg" xmlns:xlink="http://www.w3.org/1999/xlink" width="68.25pt" height="26.25pt" viewBox="0 0 68.25 26.25" version="1.2">
<defs>
<clipPath id="clip1">
  <path d="M 0.582031 0 L 12 0 L 12 18 L 0.582031 18 Z M 0.582031 0 "/>
</clipPath>
<clipPath id="clip2">
  <path d="M 10 3 L 27 3 L 27 25.519531 L 10 25.519531 Z M 10 3 "/>
</clipPath>
<clipPath id="clip3">
  <path d="M 27 2 L 44 2 L 44 25.519531 L 27 25.519531 Z M 27 2 "/>
</clipPath>
<clipPath id="clip4">
  <path d="M 56 0 L 66.9375 0 L 66.9375 18 L 56 18 Z M 56 0 "/>
</clipPath>
</defs>
<g id="surface1">
<g clip-path="url(#clip1)" clip-rule="nonzero">
<path style=" stroke:none;fill-rule:nonzero;fill:rgb(0%,0%,0%);fill-opacity:1;" d="M 6.332031 13.230469 C 6.332031 14.058594 6.453125 14.613281 6.691406 14.894531 C 6.925781 15.179688 7.359375 15.320312 7.980469 15.320312 C 8.628906 15.320312 9.457031 14.992188 10.472656 14.339844 L 11.117188 15.414062 C 9.222656 17.003906 7.65625 17.796875 6.433594 17.796875 C 5.207031 17.796875 4.234375 17.503906 3.523438 16.914062 C 2.8125 16.308594 2.457031 15.246094 2.457031 13.722656 L 2.457031 5.183594 L 0.84375 5.183594 L 0.582031 3.976562 L 2.457031 3.390625 L 2.457031 1.792969 L 6.332031 0 L 6.332031 3.585938 L 10.144531 3.292969 L 9.792969 5.410156 L 6.332031 5.277344 Z M 6.332031 13.230469 "/>
</g>
<g clip-path="url(#clip2)" clip-rule="nonzero">
<path style=" stroke:none;fill-rule:nonzero;fill:rgb(0%,0%,0%);fill-opacity:1;" d="M 13.40625 25.226562 L 12.855469 25.226562 C 12.335938 24.335938 11.9375 23.0625 11.660156 21.414062 L 12.402344 20.957031 C 13.027344 21.347656 13.574219 21.542969 14.050781 21.542969 C 15.066406 21.542969 15.839844 21.078125 16.378906 20.144531 L 17.476562 17.566406 L 12.53125 5.933594 C 12.273438 5.347656 12.046875 4.976562 11.855469 4.824219 C 11.660156 4.671875 11.292969 4.566406 10.753906 4.496094 L 10.527344 3.292969 C 12.253906 3.46875 13.492188 3.550781 14.242188 3.550781 C 15 3.550781 16.34375 3.46875 18.285156 3.292969 L 18.15625 4.433594 C 18.109375 4.453125 17.992188 4.488281 17.796875 4.53125 C 17.628906 4.574219 17.476562 4.617188 17.347656 4.660156 C 17.242188 4.683594 17.109375 4.71875 16.960938 4.757812 C 16.660156 4.886719 16.507812 5.050781 16.507812 5.25 C 16.507812 5.402344 16.550781 5.628906 16.636719 5.933594 L 19.480469 13.265625 L 22.257812 5.804688 C 22.320312 5.605469 22.355469 5.421875 22.355469 5.25 C 22.355469 4.855469 21.785156 4.59375 20.644531 4.464844 L 20.578125 3.324219 C 21.632812 3.476562 22.515625 3.550781 23.230469 3.550781 C 23.9375 3.550781 25.113281 3.476562 26.75 3.324219 L 26.523438 4.53125 C 26.003906 4.554688 25.640625 4.648438 25.425781 4.824219 C 25.230469 4.976562 25.027344 5.300781 24.808594 5.804688 L 18.027344 21.808594 C 17.054688 24.085938 15.515625 25.226562 13.40625 25.226562 Z M 13.40625 25.226562 "/>
</g>
<g clip-path="url(#clip3)" clip-rule="nonzero">
<path style=" stroke:none;fill-rule:nonzero;fill:rgb(0%,0%,0%);fill-opacity:1;" d="M 36.441406 16.132812 C 37.28125 16.132812 37.992188 15.664062 38.570312 14.730469 C 39.175781 13.773438 39.480469 12.382812 39.480469 10.5625 C 39.480469 7.171875 38.5 5.476562 36.535156 5.476562 C 35.742188 5.476562 34.871094 5.921875 33.917969 6.8125 L 33.917969 14.308594 C 34.160156 14.832031 34.511719 15.261719 34.988281 15.613281 C 35.460938 15.957031 35.949219 16.132812 36.441406 16.132812 Z M 36.507812 25.519531 C 34.5 25.328125 33.144531 25.226562 32.433594 25.226562 C 31.722656 25.226562 30.300781 25.328125 28.171875 25.519531 L 27.847656 24.347656 C 28.621094 24.171875 29.179688 23.980469 29.527344 23.761719 C 29.871094 23.542969 30.042969 23.207031 30.042969 22.75 L 30.042969 6.488281 C 30.042969 5.746094 29.765625 5.378906 29.203125 5.378906 L 27.71875 5.574219 L 27.554688 4.332031 C 29.40625 3.507812 31.164062 3.019531 32.820312 2.867188 L 33.5 3.621094 C 33.5 4.097656 33.609375 4.640625 33.824219 5.25 L 35.246094 4.171875 C 36.238281 3.410156 37.128906 3.03125 37.925781 3.03125 C 39.886719 3.03125 41.332031 3.628906 42.253906 4.824219 C 43.183594 6.019531 43.644531 7.734375 43.644531 9.972656 C 43.644531 12.191406 42.945312 14.046875 41.546875 15.546875 C 40.148438 17.046875 38.347656 17.796875 36.148438 17.796875 C 35.4375 17.796875 34.699219 17.558594 33.917969 17.078125 L 33.917969 22.816406 C 33.917969 23.226562 34.09375 23.554688 34.4375 23.792969 C 34.933594 24.007812 35.578125 24.183594 36.375 24.3125 L 36.734375 24.382812 Z M 36.507812 25.519531 "/>
</g>
<path style=" stroke:none;fill-rule:nonzero;fill:rgb(0%,0%,0%);fill-opacity:1;" d="M 49.679688 16.230469 C 50.195312 16.230469 50.628906 16.066406 50.972656 15.742188 C 51.316406 15.414062 51.492188 15.015625 51.492188 14.539062 C 51.492188 14.035156 51.425781 13.667969 51.292969 13.429688 C 51.164062 13.167969 50.953125 12.925781 50.648438 12.710938 C 50.21875 12.367188 49.605469 11.992188 48.808594 11.601562 C 48.03125 11.210938 47.421875 10.878906 46.964844 10.59375 C 46.535156 10.308594 46.105469 9.855469 45.675781 9.222656 C 45.265625 8.570312 45.058594 7.824219 45.058594 6.976562 C 45.058594 5.757812 45.53125 4.800781 46.484375 4.105469 C 47.453125 3.390625 48.648438 3.03125 50.066406 3.03125 C 51.492188 3.03125 53.105469 3.28125 54.914062 3.78125 C 54.847656 5.191406 54.667969 6.386719 54.367188 7.367188 L 53.070312 7.660156 C 52.554688 5.574219 51.574219 4.53125 50.132812 4.53125 C 49.164062 4.53125 48.679688 5.109375 48.679688 6.257812 C 48.679688 6.714844 48.863281 7.105469 49.226562 7.433594 C 49.617188 7.757812 50.179688 8.105469 50.90625 8.472656 C 51.640625 8.820312 52.167969 9.09375 52.492188 9.289062 C 52.8125 9.464844 53.246094 9.757812 53.785156 10.171875 C 54.777344 10.953125 55.269531 12.050781 55.269531 13.464844 C 55.269531 14.871094 54.730469 15.949219 53.65625 16.6875 C 52.578125 17.429688 51.160156 17.796875 49.390625 17.796875 C 47.644531 17.796875 46.113281 17.503906 44.800781 16.914062 C 44.757812 16.546875 44.734375 15.90625 44.734375 14.992188 C 44.734375 14.058594 44.757812 13.40625 44.800781 13.039062 L 46.382812 12.679688 C 46.558594 13.746094 46.933594 14.601562 47.515625 15.253906 C 48.097656 15.90625 48.816406 16.230469 49.679688 16.230469 Z M 49.679688 16.230469 "/>
<g clip-path="url(#clip4)" clip-rule="nonzero">
<path style=" stroke:none;fill-rule:nonzero;fill:rgb(0%,0%,0%);fill-opacity:1;" d="M 62.15625 13.230469 C 62.15625 14.058594 62.273438 14.613281 62.507812 14.894531 C 62.75 15.179688 63.179688 15.320312 63.804688 15.320312 C 64.449219 15.320312 65.277344 14.992188 66.292969 14.339844 L 66.9375 15.414062 C 65.042969 17.003906 63.480469 17.796875 62.25 17.796875 C 61.023438 17.796875 60.054688 17.503906 59.34375 16.914062 C 58.632812 16.308594 58.277344 15.246094 58.277344 13.722656 L 58.277344 5.183594 L 56.660156 5.183594 L 56.402344 3.976562 L 58.277344 3.390625 L 58.277344 1.792969 L 62.15625 0 L 62.15625 3.585938 L 65.96875 3.292969 L 65.613281 5.410156 L 62.15625 5.277344 Z M 62.15625 13.230469 "/>
</g>
</g>
</svg>
